# xmcd CD database file
#
# Track frame offsets:
#	150
#	22455
#	38396
#	60307
#	79947
#	99323
#	122858
#	138709
#	160579
#	180233
#
# Disc length: 2661 seconds
#
# Revision: 0
# Processed by: cddbd v1.5.1PL0 Copyright (c) Steve Scherf et al.
# Submitted via: CDex 1.51
#
DISCID=780a630a
DTITLE=Angel Smile - yggdrasill  Private Nurse -Maria- vocal mini album
DYEAR=2003
DGENRE=Game
TTITLE0=Ever Lasting Love
TTITLE1=空を見つめて
TTITLE2=CLOVER
TTITLE3=Changing Life
TTITLE4=Dreamin' On
TTITLE5=Ever Lasting Love (Instrumental version)
TTITLE6=空を見つめて (Instrumental version)
TTITLE7=CLOVER (Instrumental version)
TTITLE8=Changing Life (Instrumental version)
TTITLE9=Dreamin' On (Instrumental version)
EXTD=YEAR: 2003
EXTT0=
EXTT1=
EXTT2=
EXTT3=
EXTT4=
EXTT5=
EXTT6=
EXTT7=
EXTT8=
EXTT9=
PLAYORDER=
